<svg id="Layer_1" viewBox="0 0 64 64" xmlns="http://www.w3.org/2000/svg" data-name="Layer 1"><path d="m56.34 57.35h-2.12l.51-19.78.34-13.44a.72.72 0 0 0 -.32-.63l-26.6-18.22s0 0-.07 0l-.15-.06h-.13-.24-.06l-.14.07a.41.41 0 0 0 -.11.07.43.43 0 0 0 -.11.12l-.06.06-17.08 28.05a.77.77 0 0 0 -.11.39v23.37h-2.23a.75.75 0 0 0 0 1.5h6a.75.75 0 1 0 0-1.5h-2.25v-3l15.59-2.73v5.73h-2.28a.75.75 0 1 0 0 1.5h6a.75.75 0 0 0 0-1.5h-2.25v-5.81l17.9 1.2a.75.75 0 1 0 .1-1.5c-7.55-.5-15.64-1-18-1.21v-10.74l6.53 1.71v3a.75.75 0 0 0 1.5 0v-2.58l16.5 4.36-.29 11.57h-2.37a.75.75 0 0 0 0 1.5h6a.75.75 0 0 0 0-1.5zm-21.34-38.67-6.54-3.95v-7.41l6.54 4.48zm1.5-5.86 7.28 5v6.18l-7.28-4.41zm-9.5 2.08-4.56 6v-4.82l4.56-7.5zm0 2.47v8.63l-4.56 4.29v-7zm-6.09 14.36-9.5 9v-2.92l9.5-12.48zm-9.5 11 9.5-9v2.63a.75.75 0 0 0 1.5 0v-4l4.59-4.27v9.8l-15.56 9.3zm17.06-26.25 6.53 3.95v8.1c-3.73-1.58-5.58-2.34-6.54-2.66zm8 4.85 7.28 4.41v6.58l-7.28-3.15zm8.78 5.31 8.09 4.89-.12 4.9-8-3.46zm8.14 3.17-8.14-4.92v-6.05l8.27 5.66zm-32.48-11.26v4.31l-9.5 12.48v-1.15zm-9.5 34.25v-3.86l15.59-9.3v10.46zm17.06-15.06v-10.31c1.24.5 3.61 1.5 6.54 2.75v9.29zm8 2.12v-9l7.32 3.14v3.32a.75.75 0 0 0 1.5 0v-2.71c2.71 1.19 5.48 2.39 7.92 3.44l-.16 6.19z" fill="#231f20"/></svg>