<?xml version="1.0"?>
<svg xmlns="http://www.w3.org/2000/svg" viewBox="0 0 512 512" width="512" height="512"><g id="Out_line" data-name="Out line"><path d="M488,208a8.00039,8.00039,0,0,0,8-8V144a8.00039,8.00039,0,0,0-8-8h-9.44141L463.61914,61.30371A56.35684,56.35684,0,0,0,352,72.35645V80a8.00039,8.00039,0,0,0,8,8h32a8.00039,8.00039,0,0,0,8-8V73.44238a9.44293,9.44293,0,0,1,18.7334-1.68945L430.41431,136H264a8.00039,8.00039,0,0,0-8,8,64.07207,64.07207,0,0,0,64,64h88v48a8.00039,8.00039,0,0,0-8,8v48a8.00039,8.00039,0,0,0,8,8v40a24,24,0,0,0,48,0V320a8.00039,8.00039,0,0,0,8-8h24a8.00039,8.00039,0,0,0,8-8V272a8.00039,8.00039,0,0,0-8-8H464a8.00039,8.00039,0,0,0-8-8V208ZM434.47559,68.89062A25.44361,25.44361,0,0,0,384.04,72H368.002a40.35646,40.35646,0,0,1,79.92774-7.55762L462.24146,136h-15.5647ZM272.667,152H480v40H320A48.07781,48.07781,0,0,1,272.667,152ZM448,272v32H416V272Zm-8,88a8,8,0,0,1-16,0V320h16Zm40-80v16H464V280Zm-40-24H424V208h16Z"/><path d="M272,264H240V160a8.00039,8.00039,0,0,0-8-8H24a8.00039,8.00039,0,0,0-8,8V320a7.97444,7.97444,0,0,0,2.3457,5.65894A23.85413,23.85413,0,0,0,16,336V480a8.00039,8.00039,0,0,0,8,8H272a7.99955,7.99955,0,0,0,5.26758-14.02051l-51.51465-45.07617.83984-.15234A94.22807,94.22807,0,0,0,304,336a23.95214,23.95214,0,0,0-8.50391-18.30566A31.97866,31.97866,0,0,0,272,264Zm16,32a16.01833,16.01833,0,0,1-16,16H120a16,16,0,0,1,0-32H272A16.01833,16.01833,0,0,1,288,296Zm-64-32H120a31.792,31.792,0,0,0-16,4.30518V168H224ZM32,168H88V312H32ZM223.73047,413.00879,207.27832,416H177.68848a99.59406,99.59406,0,0,1-83.03223-44.4375l-13.3125,8.875A115.5614,115.5614,0,0,0,177.68848,432h27.30615L250.708,472H32V336a8.00917,8.00917,0,0,1,8-8H280a8.00917,8.00917,0,0,1,8,8A78.23469,78.23469,0,0,1,223.73047,413.00879Z"/></g></svg>
