<svg id="Layer_1" enable-background="new 0 0 100 100" viewBox="0 0 100 100" xmlns="http://www.w3.org/2000/svg"><g><path d="m50 60.252c9.143 0 16.598-7.455 16.627-16.627.014-5.666-4.006-11.891-8.242-18.473-3.134-4.864-6.353-9.843-8.385-15.152-2.032 5.309-5.251 10.288-8.385 15.153-4.235 6.582-8.256 12.806-8.242 18.473.029 9.171 7.484 16.626 16.627 16.626zm-12.077-18.487h.014c.787 0 1.431.644 1.431 1.431.014 5.91 4.808 10.703 10.689 10.703.787 0 1.431.644 1.431 1.431 0 .801-.644 1.431-1.431 1.431-7.455 0-13.536-6.081-13.55-13.55 0-.802.629-1.446 1.416-1.446z"/><path d="m89.764 59.766-21.091-10.675c-2.375 8.099-9.845 14.023-18.673 14.023s-16.298-5.924-18.673-14.023l-21.091 10.675 39.764 20.146z"/><path d="m50.644 82.788c-.2.1-.429.157-.644.157s-.444-.057-.644-.157l-32.323-16.369-6.797 3.434 39.764 20.147 39.764-20.147-6.797-3.434z"/></g></svg>